# xmcd
# 
# Track frame offsets:
#     150
#     20160
#     38370
#     56362
#     75200
#     96200
#     114887
#     127482
#     146455
#     159272
#     192392
#     209855
# 
# Disc length: 3059
# 
# Revision: 0
# Processed by: cddbd v1.5.2PL0 Copyright (c) Steve Scherf et al.
# Submitted via: fre:ac v1.0.31
# 
DISCID=9e0bf10c
DTITLE=渡辺歌子 - グルジアの歌
DYEAR=1998
DGENRE=Folk
TTITLE0=静かな歌
TTITLE1=モーツァルト
TTITLE2=アルバートの貴族
TTITLE3=風歌い
TTITLE4=愛しのマリーブランシュ
TTITLE5=鶴
TTITLE6=グルジアの歌
TTITLE7=美しい九月
TTITLE8=古い上着
TTITLE9=死を歌わないで
TTITLE10=結婚行進曲
TTITLE11=祈り
EXTD=
EXTT0=
EXTT1=
EXTT2=
EXTT3=
EXTT4=
EXTT5=
EXTT6=
EXTT7=
EXTT8=
EXTT9=
EXTT10=
EXTT11=
PLAYORDER=
